<svg xmlns="http://www.w3.org/2000/svg" width="300" height="300" viewBox="0 0 7.84666719284 7.84666719284">
<title>n=54 s=7.84666719</title>
<rect x="0" y="0" width="7.84666719284" height="7.84666719284" fill="#fff" stroke="#000" stroke-width="0.0523111"/>
<g transform="translate(0 7.84666719284) scale(1 -1)">
<rect x="-0.5" y="-0.5" width="1" height="1" fill="#b3cde3" stroke="#000" stroke-width="0.0313867" transform="translate(7.34666719284 7.34666719284) rotate(0)"/>
<rect x="-0.5" y="-0.5" width="1" height="1" fill="#b3cde3" stroke="#000" stroke-width="0.0313867" transform="translate(0.5 7.34666719284) rotate(0)"/>
<rect x="-0.5" y="-0.5" width="1" height="1" fill="#b3cde3" stroke="#000" stroke-width="0.0313867" transform="translate(1.5 7.34666719284) rotate(0)"/>
<rect x="-0.5" y="-0.5" width="1" height="1" fill="#b3cde3" stroke="#000" stroke-width="0.0313867" transform="translate(2.5 7.34666719284) rotate(0)"/>
<rect x="-0.5" y="-0.5" width="1" height="1" fill="#b3cde3" stroke="#000" stroke-width="0.0313867" transform="translate(3.5 7.34666719284) rotate(0)"/>
<rect x="-0.5" y="-0.5" width="1" height="1" fill="#b3cde3" stroke="#000" stroke-width="0.0313867" transform="translate(4.5 7.34666719284) rotate(0)"/>
<rect x="-0.5" y="-0.5" width="1" height="1" fill="#b3cde3" stroke="#000" stroke-width="0.0313867" transform="translate(5.5 7.34666719284) rotate(0)"/>
<rect x="-0.5" y="-0.5" width="1" height="1" fill="#b3cde3" stroke="#000" stroke-width="0.0313867" transform="translate(0.5 6.34666719284) rotate(0)"/>
<rect x="-0.5" y="-0.5" width="1" height="1" fill="#b3cde3" stroke="#000" stroke-width="0.0313867" transform="translate(1.5 6.34666719284) rotate(0)"/>
<rect x="-0.5" y="-0.5" width="1" height="1" fill="#b3cde3" stroke="#000" stroke-width="0.0313867" transform="translate(2.5 6.34666719284) rotate(0)"/>
<rect x="-0.5" y="-0.5" width="1" height="1" fill="#b3cde3" stroke="#000" stroke-width="0.0313867" transform="translate(3.5 6.34666719284) rotate(0)"/>
<rect x="-0.5" y="-0.5" width="1" height="1" fill="#b3cde3" stroke="#000" stroke-width="0.0313867" transform="translate(4.5 6.34666719284) rotate(0)"/>
<rect x="-0.5" y="-0.5" width="1" height="1" fill="#b3cde3" stroke="#000" stroke-width="0.0313867" transform="translate(0.5 5.34666719284) rotate(0)"/>
<rect x="-0.5" y="-0.5" width="1" height="1" fill="#b3cde3" stroke="#000" stroke-width="0.0313867" transform="translate(1.5 5.34666719284) rotate(0)"/>
<rect x="-0.5" y="-0.5" width="1" height="1" fill="#b3cde3" stroke="#000" stroke-width="0.0313867" transform="translate(2.5 5.34666719284) rotate(0)"/>
<rect x="-0.5" y="-0.5" width="1" height="1" fill="#b3cde3" stroke="#000" stroke-width="0.0313867" transform="translate(3.5 5.34666719284) rotate(0)"/>
<rect x="-0.5" y="-0.5" width="1" height="1" fill="#b3cde3" stroke="#000" stroke-width="0.0313867" transform="translate(0.5 4.34666719284) rotate(0)"/>
<rect x="-0.5" y="-0.5" width="1" height="1" fill="#b3cde3" stroke="#000" stroke-width="0.0313867" transform="translate(1.5 4.34666719284) rotate(0)"/>
<rect x="-0.5" y="-0.5" width="1" height="1" fill="#b3cde3" stroke="#000" stroke-width="0.0313867" transform="translate(0.5 3.34666719284) rotate(0)"/>
<rect x="-0.5" y="-0.5" width="1" height="1" fill="#fbb4ae" stroke="#000" stroke-width="0.0313867" transform="translate(0.695788666141 1.97267565316) rotate(-34.7349003)"/>
<rect x="-0.5" y="-0.5" width="1" height="1" fill="#fbb4ae" stroke="#000" stroke-width="0.0313867" transform="translate(1.44578866614 1.29934205673) rotate(-34.7349003)"/>
<rect x="-0.5" y="-0.5" width="1" height="1" fill="#fbb4ae" stroke="#000" stroke-width="0.0313867" transform="translate(1.47267565316 2.6508785267) rotate(-34.7349003)"/>
<rect x="-0.5" y="-0.5" width="1" height="1" fill="#fbb4ae" stroke="#000" stroke-width="0.0313867" transform="translate(2.22267565316 1.97754493028) rotate(-34.7349003)"/>
<rect x="-0.5" y="-0.5" width="1" height="1" fill="#fbb4ae" stroke="#000" stroke-width="0.0313867" transform="translate(2.24956264017 3.32908140025) rotate(-34.7349003)"/>
<rect x="-0.5" y="-0.5" width="1" height="1" fill="#fbb4ae" stroke="#000" stroke-width="0.0313867" transform="translate(2.819342846 4.1508785267) rotate(-34.7349003)"/>
<rect x="-0.5" y="-0.5" width="1" height="1" fill="#fbb4ae" stroke="#000" stroke-width="0.0313867" transform="translate(3.02732434684 2.69578866614) rotate(-34.7349003)"/>
<rect x="-0.5" y="-0.5" width="1" height="1" fill="#fbb4ae" stroke="#000" stroke-width="0.0313867" transform="translate(3.59710455267 3.51758579259) rotate(-34.7349003)"/>
<rect x="-0.5" y="-0.5" width="1" height="1" fill="#b3cde3" stroke="#000" stroke-width="0.0313867" transform="translate(0.5 0.5) rotate(0)"/>
<rect x="-0.5" y="-0.5" width="1" height="1" fill="#b3cde3" stroke="#000" stroke-width="0.0313867" transform="translate(7.34666719284 0.5) rotate(0)"/>
<rect x="-0.5" y="-0.5" width="1" height="1" fill="#b3cde3" stroke="#000" stroke-width="0.0313867" transform="translate(6.34666719284 0.5) rotate(0)"/>
<rect x="-0.5" y="-0.5" width="1" height="1" fill="#b3cde3" stroke="#000" stroke-width="0.0313867" transform="translate(5.34666719284 0.5) rotate(0)"/>
<rect x="-0.5" y="-0.5" width="1" height="1" fill="#b3cde3" stroke="#000" stroke-width="0.0313867" transform="translate(4.34666719284 0.5) rotate(0)"/>
<rect x="-0.5" y="-0.5" width="1" height="1" fill="#b3cde3" stroke="#000" stroke-width="0.0313867" transform="translate(3.34666719284 0.5) rotate(0)"/>
<rect x="-0.5" y="-0.5" width="1" height="1" fill="#b3cde3" stroke="#000" stroke-width="0.0313867" transform="translate(2.34666719284 0.5) rotate(0)"/>
<rect x="-0.5" y="-0.5" width="1" height="1" fill="#b3cde3" stroke="#000" stroke-width="0.0313867" transform="translate(7.34666719284 1.5) rotate(0)"/>
<rect x="-0.5" y="-0.5" width="1" height="1" fill="#b3cde3" stroke="#000" stroke-width="0.0313867" transform="translate(6.34666719284 1.5) rotate(0)"/>
<rect x="-0.5" y="-0.5" width="1" height="1" fill="#b3cde3" stroke="#000" stroke-width="0.0313867" transform="translate(5.34666719284 1.5) rotate(0)"/>
<rect x="-0.5" y="-0.5" width="1" height="1" fill="#b3cde3" stroke="#000" stroke-width="0.0313867" transform="translate(4.34666719284 1.5) rotate(0)"/>
<rect x="-0.5" y="-0.5" width="1" height="1" fill="#b3cde3" stroke="#000" stroke-width="0.0313867" transform="translate(3.34666719284 1.5) rotate(0)"/>
<rect x="-0.5" y="-0.5" width="1" height="1" fill="#b3cde3" stroke="#000" stroke-width="0.0313867" transform="translate(7.34666719284 2.5) rotate(0)"/>
<rect x="-0.5" y="-0.5" width="1" height="1" fill="#b3cde3" stroke="#000" stroke-width="0.0313867" transform="translate(6.34666719284 2.5) rotate(0)"/>
<rect x="-0.5" y="-0.5" width="1" height="1" fill="#b3cde3" stroke="#000" stroke-width="0.0313867" transform="translate(5.34666719284 2.5) rotate(0)"/>
<rect x="-0.5" y="-0.5" width="1" height="1" fill="#b3cde3" stroke="#000" stroke-width="0.0313867" transform="translate(4.34666719284 2.5) rotate(0)"/>
<rect x="-0.5" y="-0.5" width="1" height="1" fill="#b3cde3" stroke="#000" stroke-width="0.0313867" transform="translate(7.34666719284 3.5) rotate(0)"/>
<rect x="-0.5" y="-0.5" width="1" height="1" fill="#b3cde3" stroke="#000" stroke-width="0.0313867" transform="translate(6.34666719284 3.5) rotate(0)"/>
<rect x="-0.5" y="-0.5" width="1" height="1" fill="#b3cde3" stroke="#000" stroke-width="0.0313867" transform="translate(7.34666719284 4.5) rotate(0)"/>
<rect x="-0.5" y="-0.5" width="1" height="1" fill="#fbb4ae" stroke="#000" stroke-width="0.0313867" transform="translate(7.1508785267 5.87399153969) rotate(-34.7349003)"/>
<rect x="-0.5" y="-0.5" width="1" height="1" fill="#fbb4ae" stroke="#000" stroke-width="0.0313867" transform="translate(6.4008785267 6.54732513611) rotate(-34.7349003)"/>
<rect x="-0.5" y="-0.5" width="1" height="1" fill="#fbb4ae" stroke="#000" stroke-width="0.0313867" transform="translate(6.37399153969 5.19578866614) rotate(-34.7349003)"/>
<rect x="-0.5" y="-0.5" width="1" height="1" fill="#fbb4ae" stroke="#000" stroke-width="0.0313867" transform="translate(5.62399153969 5.86912226256) rotate(-34.7349003)"/>
<rect x="-0.5" y="-0.5" width="1" height="1" fill="#fbb4ae" stroke="#000" stroke-width="0.0313867" transform="translate(5.59710455267 4.51758579259) rotate(-34.7349003)"/>
<rect x="-0.5" y="-0.5" width="1" height="1" fill="#fbb4ae" stroke="#000" stroke-width="0.0313867" transform="translate(5.02732434684 3.69578866614) rotate(-34.7349003)"/>
<rect x="-0.5" y="-0.5" width="1" height="1" fill="#fbb4ae" stroke="#000" stroke-width="0.0313867" transform="translate(4.819342846 5.1508785267) rotate(-34.7349003)"/>
<rect x="-0.5" y="-0.5" width="1" height="1" fill="#fbb4ae" stroke="#000" stroke-width="0.0313867" transform="translate(4.24956264017 4.32908140025) rotate(-34.7349003)"/>
</g></svg>