<svg xmlns="http://www.w3.org/2000/svg" width="300" height="300" viewBox="0 0 6.94974746862 6.94974746862">
<title>n=41 s=6.94974747</title>
<rect x="0" y="0" width="6.94974746862" height="6.94974746862" fill="#fff" stroke="#000" stroke-width="0.0463316"/>
<g transform="translate(0 6.94974746862) scale(1 -1)">
<rect x="-0.5" y="-0.5" width="1" height="1" fill="#b3cde3" stroke="#000" stroke-width="0.027799" transform="translate(0.50000000003 0.50000000003) rotate(0)"/>
<rect x="-0.5" y="-0.5" width="1" height="1" fill="#b3cde3" stroke="#000" stroke-width="0.027799" transform="translate(1.50000000009 0.50000000003) rotate(0)"/>
<rect x="-0.5" y="-0.5" width="1" height="1" fill="#b3cde3" stroke="#000" stroke-width="0.027799" transform="translate(2.50000000015 0.50000000003) rotate(0)"/>
<rect x="-0.5" y="-0.5" width="1" height="1" fill="#b3cde3" stroke="#000" stroke-width="0.027799" transform="translate(3.50000000021 0.50000000003) rotate(0)"/>
<rect x="-0.5" y="-0.5" width="1" height="1" fill="#b3cde3" stroke="#000" stroke-width="0.027799" transform="translate(0.50000000003 1.50000000009) rotate(0)"/>
<rect x="-0.5" y="-0.5" width="1" height="1" fill="#b3cde3" stroke="#000" stroke-width="0.027799" transform="translate(1.50000000009 1.50000000009) rotate(0)"/>
<rect x="-0.5" y="-0.5" width="1" height="1" fill="#b3cde3" stroke="#000" stroke-width="0.027799" transform="translate(2.50000000015 1.50000000009) rotate(0)"/>
<rect x="-0.5" y="-0.5" width="1" height="1" fill="#b3cde3" stroke="#000" stroke-width="0.027799" transform="translate(0.50000000003 2.50000000015) rotate(0)"/>
<rect x="-0.5" y="-0.5" width="1" height="1" fill="#b3cde3" stroke="#000" stroke-width="0.027799" transform="translate(1.50000000009 2.50000000015) rotate(0)"/>
<rect x="-0.5" y="-0.5" width="1" height="1" fill="#b3cde3" stroke="#000" stroke-width="0.027799" transform="translate(0.50000000003 3.50000000021) rotate(0)"/>
<rect x="-0.5" y="-0.5" width="1" height="1" fill="#b3cde3" stroke="#000" stroke-width="0.027799" transform="translate(0.50000000003 6.44974746859) rotate(0)"/>
<rect x="-0.5" y="-0.5" width="1" height="1" fill="#b3cde3" stroke="#000" stroke-width="0.027799" transform="translate(6.44974746859 0.50000000003) rotate(0)"/>
<rect x="-0.5" y="-0.5" width="1" height="1" fill="#b3cde3" stroke="#000" stroke-width="0.027799" transform="translate(6.44974746859 6.44974746859) rotate(0)"/>
<rect x="-0.5" y="-0.5" width="1" height="1" fill="#b3cde3" stroke="#000" stroke-width="0.027799" transform="translate(5.44974746853 6.44974746859) rotate(0)"/>
<rect x="-0.5" y="-0.5" width="1" height="1" fill="#b3cde3" stroke="#000" stroke-width="0.027799" transform="translate(4.44974746847 6.44974746859) rotate(0)"/>
<rect x="-0.5" y="-0.5" width="1" height="1" fill="#b3cde3" stroke="#000" stroke-width="0.027799" transform="translate(3.44974746841 6.44974746859) rotate(0)"/>
<rect x="-0.5" y="-0.5" width="1" height="1" fill="#b3cde3" stroke="#000" stroke-width="0.027799" transform="translate(2.44974746835 6.44974746859) rotate(0)"/>
<rect x="-0.5" y="-0.5" width="1" height="1" fill="#b3cde3" stroke="#000" stroke-width="0.027799" transform="translate(6.44974746859 5.44974746853) rotate(0)"/>
<rect x="-0.5" y="-0.5" width="1" height="1" fill="#b3cde3" stroke="#000" stroke-width="0.027799" transform="translate(5.44974746853 5.44974746853) rotate(0)"/>
<rect x="-0.5" y="-0.5" width="1" height="1" fill="#b3cde3" stroke="#000" stroke-width="0.027799" transform="translate(4.44974746847 5.44974746853) rotate(0)"/>
<rect x="-0.5" y="-0.5" width="1" height="1" fill="#b3cde3" stroke="#000" stroke-width="0.027799" transform="translate(3.44974746841 5.44974746853) rotate(0)"/>
<rect x="-0.5" y="-0.5" width="1" height="1" fill="#b3cde3" stroke="#000" stroke-width="0.027799" transform="translate(6.44974746859 4.44974746847) rotate(0)"/>
<rect x="-0.5" y="-0.5" width="1" height="1" fill="#b3cde3" stroke="#000" stroke-width="0.027799" transform="translate(5.44974746853 4.44974746847) rotate(0)"/>
<rect x="-0.5" y="-0.5" width="1" height="1" fill="#b3cde3" stroke="#000" stroke-width="0.027799" transform="translate(4.44974746847 4.44974746847) rotate(0)"/>
<rect x="-0.5" y="-0.5" width="1" height="1" fill="#b3cde3" stroke="#000" stroke-width="0.027799" transform="translate(6.44974746859 3.44974746841) rotate(0)"/>
<rect x="-0.5" y="-0.5" width="1" height="1" fill="#b3cde3" stroke="#000" stroke-width="0.027799" transform="translate(5.44974746853 3.44974746841) rotate(0)"/>
<rect x="-0.5" y="-0.5" width="1" height="1" fill="#b3cde3" stroke="#000" stroke-width="0.027799" transform="translate(6.44974746859 2.44974746835) rotate(0)"/>
<rect x="-0.5" y="-0.5" width="1" height="1" fill="#fbb4ae" stroke="#000" stroke-width="0.027799" transform="translate(2.87132034368 2.87132034368) rotate(45)"/>
<rect x="-0.5" y="-0.5" width="1" height="1" fill="#fbb4ae" stroke="#000" stroke-width="0.027799" transform="translate(3.57842712491 3.57842712491) rotate(45)"/>
<rect x="-0.5" y="-0.5" width="1" height="1" fill="#fbb4ae" stroke="#000" stroke-width="0.027799" transform="translate(2.16421356245 3.57842712491) rotate(45)"/>
<rect x="-0.5" y="-0.5" width="1" height="1" fill="#fbb4ae" stroke="#000" stroke-width="0.027799" transform="translate(2.87132034368 4.28553390614) rotate(45)"/>
<rect x="-0.5" y="-0.5" width="1" height="1" fill="#fbb4ae" stroke="#000" stroke-width="0.027799" transform="translate(3.57842712491 2.16421356245) rotate(45)"/>
<rect x="-0.5" y="-0.5" width="1" height="1" fill="#fbb4ae" stroke="#000" stroke-width="0.027799" transform="translate(4.28553390614 2.87132034368) rotate(45)"/>
<rect x="-0.5" y="-0.5" width="1" height="1" fill="#fbb4ae" stroke="#000" stroke-width="0.027799" transform="translate(1.45710678122 4.28553390614) rotate(45)"/>
<rect x="-0.5" y="-0.5" width="1" height="1" fill="#fbb4ae" stroke="#000" stroke-width="0.027799" transform="translate(2.16421356245 4.99264068737) rotate(45)"/>
<rect x="-0.5" y="-0.5" width="1" height="1" fill="#fbb4ae" stroke="#000" stroke-width="0.027799" transform="translate(4.28553390614 1.45710678122) rotate(45)"/>
<rect x="-0.5" y="-0.5" width="1" height="1" fill="#fbb4ae" stroke="#000" stroke-width="0.027799" transform="translate(4.99264068737 2.16421356245) rotate(45)"/>
<rect x="-0.5" y="-0.5" width="1" height="1" fill="#fbb4ae" stroke="#000" stroke-width="0.027799" transform="translate(0.749999999995 4.99264068737) rotate(45)"/>
<rect x="-0.5" y="-0.5" width="1" height="1" fill="#fbb4ae" stroke="#000" stroke-width="0.027799" transform="translate(1.45710678122 5.6997474686) rotate(45)"/>
<rect x="-0.5" y="-0.5" width="1" height="1" fill="#fbb4ae" stroke="#000" stroke-width="0.027799" transform="translate(4.99264068737 0.749999999995) rotate(45)"/>
<rect x="-0.5" y="-0.5" width="1" height="1" fill="#fbb4ae" stroke="#000" stroke-width="0.027799" transform="translate(5.6997474686 1.45710678122) rotate(45)"/>
</g></svg>